<?xml version="1.0" encoding="UTF-8" standalone="no"?>
<!-- Created with Inkscape (http://www.inkscape.org/) -->

<svg
   width="60"
   height="60"
   viewBox="0 0 60 60"
   version="1.1"
   id="svg1"
   xmlns="http://www.w3.org/2000/svg"
   xmlns:svg="http://www.w3.org/2000/svg">

  <defs
     id="defs1">
    <linearGradient
       id="SVGID_1_5_5_5_5_5_1013288"
       gradientUnits="userSpaceOnUse"
       x1="619.51062"
       y1="323.62051"
       x2="483.16809"
       y2="323.62051">&#10;<stop
   offset="0%"
   style="stop-color:rgb(87,232,84);stop-opacity: 1"
   id="stop2" />
&#10;<stop
   offset="100%"
   style="stop-color:rgb(16,103,14);stop-opacity: 1"
   id="stop3" />
&#10;</linearGradient>
    <linearGradient
       id="SVGID_2_6_6_6_6_6_1013289"
       gradientUnits="userSpaceOnUse"
       gradientTransform="rotate(180,-65.0379,3.9805)"
       x1="-466.36179"
       y1="-696.37927"
       x2="-602.70453"
       y2="-696.37927">&#10;<stop
   offset="0%"
   style="stop-color:rgb(87,232,84);stop-opacity: 1"
   id="stop4" />
&#10;<stop
   offset="100%"
   style="stop-color:rgb(16,103,14);stop-opacity: 1"
   id="stop5" />
&#10;</linearGradient>
    <linearGradient
       id="SVGID_3_7_7_7_7_7_1013290"
       gradientUnits="userSpaceOnUse"
       gradientTransform="rotate(90,-65.037883,3.9804148)"
       x1="584.32208"
       y1="-729.3158"
       x2="447.97949"
       y2="-729.3158">&#10;<stop
   offset="0%"
   style="stop-color:rgb(87,232,84);stop-opacity: 1"
   id="stop6" />
&#10;<stop
   offset="100%"
   style="stop-color:rgb(16,103,14);stop-opacity: 1"
   id="stop7" />
&#10;</linearGradient>
    <linearGradient
       id="SVGID_4_8_8_8_8_8_1013291"
       gradientUnits="userSpaceOnUse"
       gradientTransform="rotate(-90,-65.037965,3.9804665)"
       x1="-431.17331"
       y1="356.55701"
       x2="-567.51593"
       y2="356.55701">&#10;<stop
   offset="0%"
   style="stop-color:rgb(87,232,84);stop-opacity: 1"
   id="stop8" />
&#10;<stop
   offset="100%"
   style="stop-color:rgb(16,103,14);stop-opacity: 1"
   id="stop9" />
&#10;</linearGradient>
  </defs>
  <g
     id="layer1"
     transform="translate(-69.320833,-114.82917)">
    <g
       transform="matrix(0.35857725,0,0,0.35857725,99.615553,145.12955)"
       id="logo-logo">&#10;<g
   paint-order="stroke"
   id="g10">&#10;		<g
   transform="matrix(0.3160514,0,0,0.3160514,0.01580257,-0.01580257)"
   id="g2">&#10;<path
   style="opacity:1;fill:#57e854;fill-rule:nonzero;stroke:none;stroke-width:1;stroke-linecap:butt;stroke-linejoin:miter;stroke-miterlimit:4;stroke-dasharray:none;stroke-dashoffset:0"
   paint-order="stroke"
   transform="translate(-477.9,-513.95)"
   d="m 302.3,334.5 c -6.2,-1.8 -12.5,-3.3 -18.9,-4.5 1.7,-1.8 3.5,-3.6 5.2,-5.4 18.7,-18.7 39.4,-34 61.5,-46 29.1,12.8 55.4,31.2 77.1,54.3 l 0.9,1 c 2.8,3.1 5.8,6 8.9,8.5 1.9,2.2 6.5,6.4 13,11.5 9.6,4.4 20,6.8 30.8,6.8 12.2,0 24.4,-3.1 35.3,-9 33.2,-18 47.1,-58.5 33,-92.8 24.2,6.7 47.2,16.8 68.5,30.1 -0.6,35.2 -14.6,68.2 -38.3,92.8 6.6,-4.5 12.8,-10.5 18.4,-18.3 -12.2,18.8 -29.2,34.8 -50.2,46.2 -20.5,11.1 -43.5,16.9 -66.7,16.9 -8.3,0 -16.7,-0.7 -24.9,-2.2 -30.5,-5.6 -58.6,-21.3 -79.1,-44.3 -20.2,-21.3 -45.9,-37.1 -74.5,-45.6 z m 276.8,313.3 c -20.5,-23 -48.6,-38.8 -79.1,-44.3 -8.2,-1.5 -16.6,-2.2 -24.9,-2.2 -23.1,0 -46.2,5.7 -66.7,16.9 -21,11.4 -38,27.5 -50.2,46.2 5.6,-7.8 11.8,-13.8 18.4,-18.3 -23.7,24.6 -37.7,57.6 -38.3,92.8 21.3,13.3 44.3,23.4 68.5,30.1 -14.1,-34.3 -0.1,-74.8 33,-92.8 10.9,-5.9 23,-9 35.3,-9 10.7,0 21.2,2.4 30.8,6.8 6.6,5.1 11.2,9.4 13,11.5 3.2,2.5 6.2,5.4 8.9,8.5 l 0.9,1 c 21.7,23.1 48,41.5 77.1,54.3 22.1,-12 42.8,-27.3 61.5,-46 1.8,-1.8 3.5,-3.6 5.2,-5.4 -6.4,-1.1 -12.7,-2.6 -18.9,-4.5 -28.7,-8.5 -54.4,-24.2 -74.5,-45.6 z M 640,549.9 c -5.9,-10.9 -9,-23 -9,-35.3 0,-10.7 2.4,-21.2 6.8,-30.8 5.1,-6.6 9.4,-11.2 11.5,-13 2.5,-3.2 5.4,-6.2 8.5,-8.9 l 1,-0.9 c 23.1,-21.7 41.5,-48 54.3,-77.1 -12,-22.1 -27.3,-42.8 -46,-61.5 -1.8,-1.8 -3.6,-3.5 -5.4,-5.2 -1.1,6.4 -2.6,12.7 -4.5,18.9 -8.5,28.6 -24.3,54.3 -45.6,74.5 -23,20.5 -38.8,48.6 -44.3,79.1 -1.5,8.2 -2.2,16.6 -2.2,24.9 0,23.1 5.7,46.2 16.9,66.7 11.4,21 27.5,38 46.2,50.2 -7.8,-5.6 -13.8,-11.8 -18.3,-18.4 24.6,23.7 57.6,37.7 92.8,38.3 13.3,-21.3 23.4,-44.3 30.1,-68.5 C 698.6,597 658,583 640,549.9 Z m -295.9,63 c 23,-20.5 38.8,-48.6 44.3,-79.1 1.5,-8.2 2.3,-16.6 2.3,-24.9 0,-23.1 -5.8,-46.2 -16.9,-66.7 -11.4,-21 -27.5,-38 -46.2,-50.2 7.8,5.6 13.8,11.8 18.3,18.4 -24.6,-23.7 -57.6,-37.7 -92.8,-38.3 -13.3,21.3 -23.4,44.3 -30.1,68.5 34.3,-14.1 74.8,-0.1 92.8,33 5.9,10.9 9,23 9,35.3 0,10.7 -2.4,21.2 -6.8,30.8 -5.1,6.6 -9.4,11.2 -11.5,13 -2.5,3.2 -5.4,6.2 -8.5,8.9 l -1,0.9 c -23.1,21.7 -41.5,48 -54.3,77.1 12,22.1 27.3,42.8 46,61.5 1.8,1.8 3.6,3.5 5.4,5.2 1.1,-6.4 2.6,-12.7 4.5,-18.9 8.3,-28.6 24.1,-54.4 45.5,-74.5 z"
   stroke-linecap="round"
   id="path1" />
&#10;</g>
&#10;		<g
   transform="scale(0.3160514)"
   id="g3">&#10;<path
   style="opacity:1;fill:#c5f7c5;fill-rule:nonzero;stroke:none;stroke-width:1;stroke-linecap:butt;stroke-linejoin:miter;stroke-miterlimit:4;stroke-dasharray:none;stroke-dashoffset:0"
   paint-order="stroke"
   transform="translate(-477.85,-514)"
   d="m 516.2,268.1 c 10.8,19.9 3.4,44.8 -16.5,55.6 -19.9,10.8 -44.8,3.4 -55.6,-16.5 -10.8,-19.9 -3.4,-44.8 16.5,-55.6 19.9,-10.8 44.8,-3.4 55.6,16.5 z m -60.1,436.2 c -19.9,10.8 -27.3,35.7 -16.5,55.6 10.8,19.9 35.7,27.3 55.6,16.5 19.9,-10.8 27.3,-35.7 16.5,-55.6 C 500.9,700.9 476,693.5 456.1,704.3 Z M 740.2,494.4 c -10.8,-19.9 -35.7,-27.3 -55.6,-16.5 -19.9,10.8 -27.3,35.7 -16.5,55.6 10.8,19.9 35.7,27.3 55.6,16.5 19.9,-10.8 27.3,-35.7 16.5,-55.6 z M 232,473.4 c -19.9,10.8 -27.3,35.7 -16.5,55.6 10.8,19.9 35.7,27.3 55.6,16.5 19.9,-10.8 27.3,-35.7 16.5,-55.6 C 276.8,470 252,462.7 232,473.4 Z"
   stroke-linecap="round"
   id="path2" />
&#10;</g>
&#10;		<g
   transform="matrix(0.3160514,0,0,0.3160514,16.102819,-60.190297)"
   id="g11">&#10;<linearGradient
   id="linearGradient11"
   gradientUnits="userSpaceOnUse"
   x1="619.51062"
   y1="323.62051"
   x2="483.16809"
   y2="323.62051">&#10;<stop
   offset="0%"
   style="stop-color:rgb(87,232,84);stop-opacity: 1"
   id="stop10" />
&#10;<stop
   offset="100%"
   style="stop-color:rgb(16,103,14);stop-opacity: 1"
   id="stop11" />
&#10;</linearGradient>
&#10;<path
   style="opacity:1;fill:url(#SVGID_1_5_5_5_5_5_1013288);fill-rule:nonzero;stroke:none;stroke-width:1;stroke-linecap:butt;stroke-linejoin:miter;stroke-miterlimit:4;stroke-dasharray:none;stroke-dashoffset:0"
   paint-order="stroke"
   transform="translate(-528.8,-323.55535)"
   d="m 620.6,287.5 c -0.1,27 -8.1,53.5 -22.8,76 0,0 0,0 0,0 -51,71.3 -150.1,-8.8 -160.8,-21.1 20.7,11.8 55.6,18.7 77.6,6.7 33.9,-18.4 46.8,-60.7 29,-94.7 26.9,6.8 52.9,17.8 77,33.1 z"
   stroke-linecap="round"
   id="path3" />
&#10;</g>
&#10;		<g
   transform="matrix(0.3160514,0,0,0.3160514,-16.071214,60.190297)"
   id="g5">&#10;<linearGradient
   id="linearGradient13"
   gradientUnits="userSpaceOnUse"
   gradientTransform="rotate(180,-65.0379,3.9805)"
   x1="-466.36179"
   y1="-696.37927"
   x2="-602.70453"
   y2="-696.37927">&#10;<stop
   offset="0%"
   style="stop-color:rgb(87,232,84);stop-opacity: 1"
   id="stop12" />
&#10;<stop
   offset="100%"
   style="stop-color:rgb(16,103,14);stop-opacity: 1"
   id="stop13" />
&#10;</linearGradient>
&#10;<path
   style="opacity:1;fill:url(#SVGID_2_6_6_6_6_6_1013289);fill-rule:nonzero;stroke:none;stroke-width:1;stroke-linecap:butt;stroke-linejoin:miter;stroke-miterlimit:4;stroke-dasharray:none;stroke-dashoffset:0"
   paint-order="stroke"
   transform="translate(-427,-704.44465)"
   d="m 335.2,740.5 c 0.1,-27 8.1,-53.5 22.8,-76 0,0 0,0 0,0 51,-71.3 150.1,8.8 160.8,21.1 -20.7,-11.8 -55.6,-18.7 -77.6,-6.7 -33.9,18.4 -46.8,60.7 -29,94.7 -26.9,-6.9 -52.9,-17.9 -77,-33.1 z"
   stroke-linecap="round"
   id="path5" />
&#10;</g>
&#10;		<g
   transform="matrix(0.3160514,0,0,0.3160514,60.2061,15.360098)"
   id="g7">&#10;<linearGradient
   id="linearGradient15"
   gradientUnits="userSpaceOnUse"
   gradientTransform="rotate(90,-65.037883,3.9804148)"
   x1="584.32208"
   y1="-729.3158"
   x2="447.97949"
   y2="-729.3158">&#10;<stop
   offset="0%"
   style="stop-color:rgb(87,232,84);stop-opacity: 1"
   id="stop14" />
&#10;<stop
   offset="100%"
   style="stop-color:rgb(16,103,14);stop-opacity: 1"
   id="stop15" />
&#10;</linearGradient>
&#10;<path
   style="opacity:1;fill:url(#SVGID_3_7_7_7_7_7_1013290);fill-rule:nonzero;stroke:none;stroke-width:1;stroke-linecap:butt;stroke-linejoin:miter;stroke-miterlimit:4;stroke-dasharray:none;stroke-dashoffset:0"
   paint-order="stroke"
   transform="translate(-668.34465,-562.6)"
   d="m 704.4,654.4 c -27,-0.1 -53.5,-8.1 -76,-22.8 0,0 0,0 0,0 -71.3,-51 8.8,-150.1 21.1,-160.8 -11.8,20.7 -18.7,55.6 -6.7,77.6 18.4,33.9 60.7,46.8 94.7,29 -6.9,26.9 -17.9,52.9 -33.1,77 z"
   stroke-linecap="round"
   id="path7" />
&#10;</g>
&#10;		<g
   transform="matrix(0.3160514,0,0,0.3160514,-60.174495,-16.813935)"
   id="g9">&#10;<linearGradient
   id="linearGradient17"
   gradientUnits="userSpaceOnUse"
   gradientTransform="rotate(-90,-65.037965,3.9804665)"
   x1="-431.17331"
   y1="356.55701"
   x2="-567.51593"
   y2="356.55701">&#10;<stop
   offset="0%"
   style="stop-color:rgb(87,232,84);stop-opacity: 1"
   id="stop16" />
&#10;<stop
   offset="100%"
   style="stop-color:rgb(16,103,14);stop-opacity: 1"
   id="stop17" />
&#10;</linearGradient>
&#10;<path
   style="opacity:1;fill:url(#SVGID_4_8_8_8_8_8_1013291);fill-rule:nonzero;stroke:none;stroke-width:1;stroke-linecap:butt;stroke-linejoin:miter;stroke-miterlimit:4;stroke-dasharray:none;stroke-dashoffset:0"
   paint-order="stroke"
   transform="translate(-287.45535,-460.8)"
   d="m 251.4,369 c 27,0.1 53.5,8.1 76,22.8 0,0 0,0 0,0 71.3,51 -8.8,150.1 -21.1,160.8 11.8,-20.7 18.7,-55.6 6.7,-77.6 -18.4,-33.9 -60.6,-46.8 -94.7,-29 6.9,-26.9 17.9,-52.9 33.1,-77 z"
   stroke-linecap="round"
   id="path9" />
&#10;</g>
&#10;</g>
&#10;</g>
  </g>
</svg>
