<?xml version="1.0" encoding="utf-8"?>
<svg viewBox="0 0 1030 300" xmlns="http://www.w3.org/2000/svg">
  <g transform="matrix(1.355252981185913, 0, 0, 1.355252981185913, 134.27713412872345, 145.3729138783488)" id="logo-logo">
    <g style="" paint-order="stroke">
      <g transform="matrix(0.3160514036526562 0 0 0.3160514036526562 0.01580257018258635 -0.015802570182614772)">
        <path style="stroke: none; stroke-width: 1; stroke-dasharray: none; stroke-linecap: butt; stroke-dashoffset: 0; stroke-linejoin: miter; stroke-miterlimit: 4; fill: rgb(87,232,84); fill-rule: nonzero; opacity: 1;" paint-order="stroke" transform=" translate(-477.9, -513.95)" d="M 302.3 334.5 C 296.1 332.7 289.8 331.2 283.40000000000003 330 C 285.1 328.2 286.90000000000003 326.4 288.6 324.6 C 307.3 305.90000000000003 328 290.6 350.1 278.6 C 379.20000000000005 291.40000000000003 405.5 309.8 427.20000000000005 332.90000000000003 L 428.1 333.90000000000003 C 430.90000000000003 337.00000000000006 433.90000000000003 339.90000000000003 437 342.40000000000003 C 438.9 344.6 443.5 348.8 450 353.90000000000003 C 459.6 358.3 470 360.70000000000005 480.8 360.70000000000005 C 493 360.70000000000005 505.2 357.6 516.1 351.70000000000005 C 549.3000000000001 333.70000000000005 563.2 293.20000000000005 549.1 258.90000000000003 C 573.3000000000001 265.6 596.3000000000001 275.70000000000005 617.6 289.00000000000006 C 617 324.20000000000005 603 357.20000000000005 579.3000000000001 381.80000000000007 C 585.9000000000001 377.30000000000007 592.1 371.30000000000007 597.7 363.50000000000006 C 585.5 382.30000000000007 568.5 398.30000000000007 547.5 409.70000000000005 C 527 420.80000000000007 504 426.6 480.8 426.6 C 472.5 426.6 464.1 425.90000000000003 455.90000000000003 424.40000000000003 C 425.40000000000003 418.8 397.3 403.1 376.80000000000007 380.1 C 356.6 358.8 330.9 343 302.3 334.5 z M 579.1 647.8 C 558.6 624.8 530.5 609 500 603.5 C 491.8 602 483.4 601.3 475.1 601.3 C 452 601.3 428.90000000000003 607 408.40000000000003 618.1999999999999 C 387.40000000000003 629.5999999999999 370.40000000000003 645.6999999999999 358.20000000000005 664.4 C 363.80000000000007 656.6 370.00000000000006 650.6 376.6 646.1 C 352.90000000000003 670.7 338.90000000000003 703.7 338.3 738.9 C 359.6 752.1999999999999 382.6 762.3 406.8 769 C 392.7 734.7 406.7 694.2 439.8 676.2 C 450.7 670.3000000000001 462.8 667.2 475.1 667.2 C 485.8 667.2 496.3 669.6 505.90000000000003 674 C 512.5 679.1 517.1 683.4 518.9000000000001 685.5 C 522.1000000000001 688 525.1000000000001 690.9 527.8000000000001 694 L 528.7 695 C 550.4000000000001 718.1 576.7 736.5 605.8000000000001 749.3 C 627.9000000000001 737.3 648.6 722 667.3000000000001 703.3 C 669.1 701.5 670.8000000000001 699.6999999999999 672.5000000000001 697.9 C 666.1000000000001 696.8 659.8000000000001 695.3 653.6000000000001 693.4 C 624.9 684.9 599.2 669.2 579.1 647.8 z M 640 549.9 C 634.1 539 631 526.9 631 514.6 C 631 503.90000000000003 633.4 493.40000000000003 637.8 483.8 C 642.9 477.2 647.1999999999999 472.6 649.3 470.8 C 651.8 467.6 654.6999999999999 464.6 657.8 461.90000000000003 L 658.8 461.00000000000006 C 681.9 439.30000000000007 700.3 413.00000000000006 713.0999999999999 383.9000000000001 C 701.0999999999999 361.80000000000007 685.8 341.1000000000001 667.0999999999999 322.4000000000001 C 665.3 320.6000000000001 663.4999999999999 318.9000000000001 661.6999999999999 317.2000000000001 C 660.5999999999999 323.6000000000001 659.0999999999999 329.9000000000001 657.1999999999999 336.1000000000001 C 648.6999999999999 364.7000000000001 632.9 390.4000000000001 611.5999999999999 410.6000000000001 C 588.5999999999999 431.1000000000001 572.8 459.2000000000001 567.3 489.70000000000005 C 565.8 497.90000000000003 565.0999999999999 506.30000000000007 565.0999999999999 514.6 C 565.0999999999999 537.7 570.8 560.8000000000001 581.9999999999999 581.3000000000001 C 593.3999999999999 602.3000000000001 609.4999999999999 619.3000000000001 628.1999999999999 631.5000000000001 C 620.4 625.9000000000001 614.4 619.7000000000002 609.9 613.1000000000001 C 634.5 636.8000000000002 667.5 650.8000000000002 702.6999999999999 651.4000000000001 C 715.9999999999999 630.1000000000001 726.0999999999999 607.1000000000001 732.8 582.9000000000001 C 698.6 597 658 583 640 549.9 z M 344.1 612.9 C 367.1 592.4 382.90000000000003 564.3 388.40000000000003 533.8 C 389.90000000000003 525.5999999999999 390.70000000000005 517.1999999999999 390.70000000000005 508.9 C 390.70000000000005 485.79999999999995 384.90000000000003 462.7 373.80000000000007 442.2 C 362.4000000000001 421.2 346.30000000000007 404.2 327.6000000000001 392 C 335.4000000000001 397.6 341.4000000000001 403.8 345.9000000000001 410.4 C 321.30000000000007 386.7 288.30000000000007 372.7 253.10000000000008 372.09999999999997 C 239.80000000000007 393.4 229.70000000000007 416.4 223.00000000000009 440.59999999999997 C 257.30000000000007 426.49999999999994 297.80000000000007 440.49999999999994 315.80000000000007 473.59999999999997 C 321.70000000000005 484.49999999999994 324.80000000000007 496.59999999999997 324.80000000000007 508.9 C 324.80000000000007 519.6 322.4000000000001 530.1 318.00000000000006 539.6999999999999 C 312.90000000000003 546.3 308.6000000000001 550.9 306.50000000000006 552.6999999999999 C 304.00000000000006 555.9 301.1000000000001 558.9 298.00000000000006 561.5999999999999 L 297.00000000000006 562.4999999999999 C 273.90000000000003 584.1999999999999 255.50000000000006 610.4999999999999 242.70000000000005 639.5999999999999 C 254.70000000000005 661.6999999999999 270.00000000000006 682.3999999999999 288.70000000000005 701.0999999999999 C 290.50000000000006 702.8999999999999 292.30000000000007 704.5999999999999 294.1 706.3 C 295.20000000000005 699.9 296.70000000000005 693.5999999999999 298.6 687.4 C 306.9 658.8 322.7 633 344.1 612.9 z" stroke-linecap="round"/>
      </g>
      <g transform="matrix(0.3160514036526562 0 0 0.3160514036526562 0 0)">
        <path style="stroke: none; stroke-width: 1; stroke-dasharray: none; stroke-linecap: butt; stroke-dashoffset: 0; stroke-linejoin: miter; stroke-miterlimit: 4; fill: rgb(197,247,197); fill-rule: nonzero; opacity: 1;" paint-order="stroke" transform=" translate(-477.85, -513.9999999999999)" d="M 516.2 268.1 C 527 288 519.6 312.90000000000003 499.70000000000005 323.70000000000005 C 479.80000000000007 334.50000000000006 454.90000000000003 327.1 444.1 307.20000000000005 C 433.3 287.30000000000007 440.70000000000005 262.40000000000003 460.6 251.60000000000005 C 480.5 240.8 505.4 248.2 516.2 268.1 z M 456.1 704.3 C 436.20000000000005 715.0999999999999 428.8 740 439.6 759.9 C 450.40000000000003 779.8 475.3 787.1999999999999 495.20000000000005 776.4 C 515.1 765.6 522.5 740.6999999999999 511.70000000000005 720.8 C 500.9 700.9 476 693.5 456.1 704.3 z M 740.2 494.4 C 729.4000000000001 474.5 704.5 467.09999999999997 684.6 477.9 C 664.7 488.7 657.3000000000001 513.6 668.1 533.5 C 678.9 553.4 703.8000000000001 560.8 723.7 550 C 743.6 539.2 751 514.3 740.2 494.4 z M 232 473.4 C 212.1 484.2 204.7 509.09999999999997 215.5 529 C 226.3 548.9 251.2 556.3 271.1 545.5 C 291 534.7 298.40000000000003 509.8 287.6 489.9 C 276.8 470 252 462.7 232 473.4 z" stroke-linecap="round"/>
      </g>
      <g transform="matrix(0.3160514036526562 0 0 0.3160514036526562 16.1028190161029 -60.19029739902649)">
        <linearGradient id="SVGID_1_5_5_5_5_5_420067" gradientUnits="userSpaceOnUse" gradientTransform="matrix(1 0 0 1 0 0)" x1="619.5106" y1="323.6205" x2="483.1681" y2="323.6205">
          <stop offset="0" style="stop-color:rgb(87,232,84);stop-opacity: 1"/>
          <stop offset="1" style="stop-color:rgb(16,103,14);stop-opacity: 1"/>
        </linearGradient>
        <path style="stroke: none; stroke-width: 1; stroke-dasharray: none; stroke-linecap: butt; stroke-dashoffset: 0; stroke-linejoin: miter; stroke-miterlimit: 4; fill: url(#SVGID_1_5_5_5_5_5_420067); fill-rule: nonzero; opacity: 1;" paint-order="stroke" transform=" translate(-528.8000000000001, -323.55535490936705)" d="M 620.6 287.5 C 620.5 314.5 612.5 341 597.8000000000001 363.5 C 597.8000000000001 363.5 597.8000000000001 363.5 597.8000000000001 363.5 C 546.8000000000001 434.8 447.70000000000005 354.7 437.00000000000006 342.4 C 457.70000000000005 354.2 492.6000000000001 361.09999999999997 514.6 349.09999999999997 C 548.5 330.7 561.4 288.4 543.6 254.39999999999998 C 570.5 261.2 596.5 272.2 620.6 287.5 z" stroke-linecap="round"/>
      </g>
      <g transform="matrix(0.3160514036526562 0 0 0.3160514036526562 -16.071213875737612 60.19029739902652)">
        <linearGradient id="SVGID_2_6_6_6_6_6_420068" gradientUnits="userSpaceOnUse" gradientTransform="matrix(-1 0 0 -1 -130.0758 7.961)" x1="-466.3618" y1="-696.3793" x2="-602.7045" y2="-696.3793">
          <stop offset="0" style="stop-color:rgb(87,232,84);stop-opacity: 1"/>
          <stop offset="1" style="stop-color:rgb(16,103,14);stop-opacity: 1"/>
        </linearGradient>
        <path style="stroke: none; stroke-width: 1; stroke-dasharray: none; stroke-linecap: butt; stroke-dashoffset: 0; stroke-linejoin: miter; stroke-miterlimit: 4; fill: url(#SVGID_2_6_6_6_6_6_420068); fill-rule: nonzero; opacity: 1;" paint-order="stroke" transform=" translate(-427, -704.4446450906329)" d="M 335.2 740.5 C 335.3 713.5 343.3 687 358 664.5 C 358 664.5 358 664.5 358 664.5 C 409 593.2 508.1 673.3 518.8 685.6 C 498.09999999999997 673.8000000000001 463.19999999999993 666.9 441.19999999999993 678.9 C 407.29999999999995 697.3 394.3999999999999 739.6 412.19999999999993 773.6 C 385.3 766.7 359.3 755.7 335.2 740.5 z" stroke-linecap="round"/>
      </g>
      <g transform="matrix(0.3160514036526562 0 0 0.3160514036526562 60.20609996920905 15.360098217519095)">
        <linearGradient id="SVGID_3_7_7_7_7_7_420069" gradientUnits="userSpaceOnUse" gradientTransform="matrix(-4.807425e-7 1 -1 -4.372251e-7 -61.0575 69.0183)" x1="584.3221" y1="-729.3158" x2="447.9795" y2="-729.3158">
          <stop offset="0" style="stop-color:rgb(87,232,84);stop-opacity: 1"/>
          <stop offset="1" style="stop-color:rgb(16,103,14);stop-opacity: 1"/>
        </linearGradient>
        <path style="stroke: none; stroke-width: 1; stroke-dasharray: none; stroke-linecap: butt; stroke-dashoffset: 0; stroke-linejoin: miter; stroke-miterlimit: 4; fill: url(#SVGID_3_7_7_7_7_7_420069); fill-rule: nonzero; opacity: 1;" paint-order="stroke" transform=" translate(-668.3446450906329, -562.6)" d="M 704.4 654.4 C 677.4 654.3 650.9 646.3 628.4 631.6 C 628.4 631.6 628.4 631.6 628.4 631.6 C 557.1 580.6 637.1999999999999 481.5 649.5 470.8 C 637.7 491.5 630.8 526.4 642.8 548.4 C 661.1999999999999 582.3 703.5 595.1999999999999 737.5 577.4 C 730.6 604.3 719.6 630.3 704.4 654.4 z" stroke-linecap="round"/>
      </g>
      <g transform="matrix(0.3160514036526562 0 0 0.3160514036526562 -60.174494828843876 -16.81393467432136)">
        <linearGradient id="SVGID_4_8_8_8_8_8_420070" gradientUnits="userSpaceOnUse" gradientTransform="matrix(4.807425e-7 -1 1 4.372251e-7 -69.0184 -61.0575)" x1="-431.1733" y1="356.557" x2="-567.5159" y2="356.557">
          <stop offset="0" style="stop-color:rgb(87,232,84);stop-opacity: 1"/>
          <stop offset="1" style="stop-color:rgb(16,103,14);stop-opacity: 1"/>
        </linearGradient>
        <path style="stroke: none; stroke-width: 1; stroke-dasharray: none; stroke-linecap: butt; stroke-dashoffset: 0; stroke-linejoin: miter; stroke-miterlimit: 4; fill: url(#SVGID_4_8_8_8_8_8_420070); fill-rule: nonzero; opacity: 1;" paint-order="stroke" transform=" translate(-287.4553549093671, -460.8)" d="M 251.4 369 C 278.4 369.1 304.9 377.1 327.4 391.8 C 327.4 391.8 327.4 391.8 327.4 391.8 C 398.7 442.8 318.59999999999997 541.9 306.29999999999995 552.6 C 318.09999999999997 531.9 324.99999999999994 497 312.99999999999994 475 C 294.59999999999997 441.1 252.39999999999995 428.2 218.29999999999995 446 C 225.2 419.1 236.2 393.1 251.4 369 z" stroke-linecap="round"/>
      </g>
    </g>
  </g>
  <g transform="matrix(1.9211540222167967, 0, 0, 1.9211540222167967, 664.6026199043572, 138.94005235850958)" id="text-logo">
    <g style="" paint-order="stroke">
      <g transform="matrix(1 0 0 1 -5.684342e-14 0)" id="text-logo-path-0">
        <path style="stroke: none; stroke-width: 0; stroke-dasharray: none; stroke-linecap: butt; stroke-dashoffset: 0; stroke-linejoin: miter; stroke-miterlimit: 4; fill: rgb(197,247,197); fill-rule: nonzero; opacity: 1;" paint-order="stroke" transform=" translate(-178.49499999999998, 23.84)" d="M 26.43 0.7 Q 19.04 0.7 13.5 -2.36 Q 7.96 -5.41 4.97 -11 Q 1.97 -16.59 1.97 -23.98 L 1.97 -23.98 Q 1.97 -31.43 5.02 -36.94 Q 8.06 -42.45 13.61 -45.41 Q 19.17 -48.38 26.5 -48.38 L 26.5 -48.38 Q 33.92 -48.38 39.44 -45.38 Q 44.97 -42.39 47.98 -36.85 Q 50.99 -31.31 50.99 -23.92 L 50.99 -23.92 Q 50.99 -16.46 47.93 -10.89 Q 44.87 -5.32 39.32 -2.31 Q 33.76 0.7 26.43 0.7 L 26.43 0.7 Z M 12.48 -23.98 Q 12.48 -19.49 14.33 -16.15 Q 16.18 -12.8 19.36 -11.03 Q 22.55 -9.27 26.43 -9.27 L 26.43 -9.27 Q 30.38 -9.27 33.58 -11.03 Q 36.78 -12.8 38.63 -16.13 Q 40.48 -19.46 40.48 -23.98 L 40.48 -23.98 Q 40.48 -28.41 38.63 -31.69 Q 36.78 -34.97 33.58 -36.7 Q 30.38 -38.44 26.43 -38.44 L 26.43 -38.44 Q 22.55 -38.44 19.36 -36.72 Q 16.18 -35 14.33 -31.72 Q 12.48 -28.44 12.48 -23.98 L 12.48 -23.98 Z M 64.67 0 L 64.67 -47.67 L 92.32 -47.67 L 92.32 -38.15 L 75.18 -38.15 L 75.18 -29.39 L 91.62 -29.39 L 91.62 -19.84 L 75.18 -19.84 L 75.18 -9.52 L 92.32 -9.52 L 92.32 0 L 64.67 0 Z M 107.92 0 L 107.92 -47.67 L 120.69 -47.67 Q 127.22 -47.67 131.6 -46.31 Q 135.97 -44.94 139.06 -42.23 L 139.06 -42.23 Q 142.69 -38.98 144.59 -34.25 Q 146.48 -29.52 146.48 -23.85 L 146.48 -23.85 Q 146.48 -18.89 145.05 -14.63 Q 143.62 -10.38 140.81 -7.23 L 140.81 -7.23 Q 137.66 -3.69 132.82 -1.85 Q 127.98 0 120.69 0 L 120.69 0 L 107.92 0 Z M 118.3 -9.52 L 120.75 -9.52 Q 125.43 -9.52 128.2 -10.61 Q 130.97 -11.69 132.66 -13.82 L 132.66 -13.82 Q 134.22 -15.73 134.99 -18.28 Q 135.75 -20.83 135.75 -23.85 L 135.75 -23.85 Q 135.75 -27.2 134.83 -29.97 Q 133.9 -32.74 132.02 -34.65 L 132.02 -34.65 Q 130.27 -36.4 127.69 -37.28 Q 125.11 -38.15 120.75 -38.15 L 120.75 -38.15 L 118.3 -38.15 L 118.3 -9.52 Z M 154.57 0 L 165.94 -47.67 L 175.59 -47.67 L 184.85 -18.41 L 194.06 -47.67 L 203.74 -47.67 L 215.08 0 L 204.22 0 L 197.97 -29.94 L 188.58 0 L 181.06 0 L 171.7 -29.87 L 165.43 0 L 154.57 0 Z M 230.9 0.7 Q 228.6 0.7 226.71 0.35 Q 224.81 0 222.78 -0.76 L 222.78 -0.76 L 222.78 -10.45 L 222.97 -10.45 Q 224.75 -9.59 226.33 -9.2 Q 227.9 -8.82 229.72 -8.82 L 229.72 -8.82 Q 233.25 -8.82 234.89 -10.08 Q 236.53 -11.34 236.9 -13.17 Q 237.27 -15 237.27 -18.15 L 237.27 -18.15 L 237.27 -47.67 L 247.81 -47.67 L 247.81 -17.9 Q 247.81 -13.69 246.93 -9.82 Q 246.06 -5.96 242.31 -2.63 Q 238.57 0.7 230.9 0.7 L 230.9 0.7 Z M 281.46 0.7 Q 275.64 0.7 271.43 -1.42 Q 267.23 -3.54 265.01 -7.56 Q 262.8 -11.59 262.8 -17.2 L 262.8 -17.2 L 262.8 -47.67 L 273.31 -47.67 L 273.31 -17.74 Q 273.31 -13.5 275.16 -11.16 Q 277.01 -8.82 281.46 -8.82 L 281.46 -8.82 Q 286.02 -8.82 287.88 -11.16 Q 289.74 -13.5 289.74 -17.74 L 289.74 -17.74 L 289.74 -47.67 L 300.25 -47.67 L 300.25 -17.2 Q 300.25 -11.59 298.02 -7.56 Q 295.79 -3.54 291.58 -1.42 Q 287.36 0.7 281.46 0.7 L 281.46 0.7 Z M 341.78 0 L 326.62 -22.83 L 326.62 0 L 316.11 0 L 316.11 -47.67 L 326.62 -47.67 L 326.62 -26.27 L 341.71 -47.67 L 355.02 -47.67 L 337.51 -24.62 L 354.61 0 L 341.78 0 Z" stroke-linecap="round"/>
      </g>
    </g>
  </g>
</svg>